<svg xmlns="http://www.w3.org/2000/svg" style="display: none;">
  
  <symbol id="chart" viewBox="0 0 24 24">
    <path d="M24 3.875l-6 1.221 1.716 1.708-5.351 5.358-3.001-3.002-7.336 7.242 1.41 1.418 5.922-5.834 2.991 2.993 6.781-6.762 1.667 1.66 1.201-6.002zm0 17.125v2h-24v-22h2v20h22z"/>
  </symbol>

  <symbol id="info" viewBox="0 0 24 24">
    <path d="M13.25 7c0 .69-.56 1.25-1.25 1.25s-1.25-.56-1.25-1.25.56-1.25 1.25-1.25 1.25.56 1.25 1.25zm10.75 5c0 6.627-5.373 12-12 12s-12-5.373-12-12 5.373-12 12-12 12 5.373 12 12zm-2 0c0-5.514-4.486-10-10-10s-10 4.486-10 10 4.486 10 10 10 10-4.486 10-10zm-13-2v2h2v6h2v-8h-4z"/>
  </symbol>


  <symbol id="layer" viewBox="0 0 24 24">
    <path d="M21.698 10.658l2.302 1.342-12.002 7-11.998-7 2.301-1.342 9.697 5.658 9.7-5.658zm-9.7 10.657l-9.697-5.658-2.301 1.343 11.998 7 12.002-7-2.302-1.342-9.7 5.657zm12.002-14.315l-12.002-7-11.998 7 11.998 7 12.002-7z"/>
  </symbol>


  <symbol id="menu" viewBox="0 0 24 24">
    <path d="M4 22h-4v-4h4v4zm0-12h-4v4h4v-4zm0-8h-4v4h4v-4zm3 0v4h17v-4h-17zm0 12h17v-4h-17v4zm0 8h17v-4h-17v4z"/>
  </symbol>


  <symbol id="download" viewBox="0 0 24 24">
    <path d="M14 10h5l-7 8-7-8h5v-10h4v10zm4.213-8.246l-1.213 1.599c2.984 1.732 5 4.955 5 8.647 0 5.514-4.486 10-10 10s-10-4.486-10-10c0-3.692 2.016-6.915 5-8.647l-1.213-1.599c-3.465 2.103-5.787 5.897-5.787 10.246 0 6.627 5.373 12 12 12s12-5.373 12-12c0-4.349-2.322-8.143-5.787-10.246z"/>
  </symbol>

  <symbol id="close" viewBox="0 0 24 24">
    <path d="M24 20.188l-8.315-8.209 8.2-8.282-3.697-3.697-8.212 8.318-8.31-8.203-3.666 3.666 8.321 8.24-8.206 8.313 3.666 3.666 8.237-8.318 8.285 8.203z"/>
  </symbol>

  <symbol id="shape" viewBox="164.16 32.717 391.68 395.366">
    <path d="M203.328,32.717L164.16,389.376l352.512,38.707L555.84,71.424L203.328,32.717z M516.211,196.301l-152.524-59.904l23.04-57.6
    l140.544,15.667L516.211,196.301z M330.509,218.88l27.648-68.659l46.541,18.432l-28.108,69.581L330.509,218.88z M321.293,242.842
    l94.003,38.707l-25.805,62.669l-93.542-38.247L321.293,242.842z M482.573,398.592l-214.272-23.501l22.118-54.835L482.573,398.592z
     M403.776,349.747l25.805-62.208l73.267,30.413l0,0l-7.833,69.581L403.776,349.747z M390.873,243.763l28.109-69.581l95.847,37.785
    l-8.756,79.719L390.873,243.763z M360.461,75.571l-20.275,51.149l-116.122-45.62l2.304-20.736L360.461,75.571z M222.221,97.229
    l112.436,43.776l-62.208,155.29l-69.12-28.109L222.221,97.229z M201.485,283.853l64.973,26.727l-24.883,61.747l-49.305-5.529
    L201.485,283.853z"/>
  </symbol>

  <symbol id="down" viewBox="0 0 284.929 284.929">
    <path d="M282.082,76.511l-14.274-14.273c-1.902-1.906-4.093-2.856-6.57-2.856c-2.471,0-4.661,0.95-6.563,2.856L142.466,174.441
    L30.262,62.241c-1.903-1.906-4.093-2.856-6.567-2.856c-2.475,0-4.665,0.95-6.567,2.856L2.856,76.515C0.95,78.417,0,80.607,0,83.082
    c0,2.473,0.953,4.663,2.856,6.565l133.043,133.046c1.902,1.903,4.093,2.854,6.567,2.854s4.661-0.951,6.562-2.854L282.082,89.647
    c1.902-1.903,2.847-4.093,2.847-6.565C284.929,80.607,283.984,78.417,282.082,76.511z"/>
  </symbol>

  <symbol id="up" viewBox="0 0 284.929 284.929">
    <path d="M282.082,195.285L149.028,62.24c-1.901-1.903-4.088-2.856-6.562-2.856s-4.665,0.953-6.567,2.856L2.856,195.285
    C0.95,197.191,0,199.378,0,201.853c0,2.474,0.953,4.664,2.856,6.566l14.272,14.271c1.903,1.903,4.093,2.854,6.567,2.854
    c2.474,0,4.664-0.951,6.567-2.854l112.204-112.202l112.208,112.209c1.902,1.903,4.093,2.848,6.563,2.848
    c2.478,0,4.668-0.951,6.57-2.848l14.274-14.277c1.902-1.902,2.847-4.093,2.847-6.566
    C284.929,199.378,283.984,197.188,282.082,195.285z"/>
  </symbol>


</svg>